<svg version="1.1" id="Layer_1" xmlns="http://www.w3.org/2000/svg" xmlns:xlink="http://www.w3.org/1999/xlink" x="0px" y="0px"
	 width="100%" viewBox="0 0 480 480" enable-background="new 0 0 480 480" xml:space="preserve">
<path fill="#000000" opacity="1.000000" stroke="none" 
	d="
M94.512390,264.176758 
	C92.234276,262.755096 92.794876,260.765869 92.791733,259.018280 
	C92.751007,236.355225 92.852608,213.691376 92.678749,191.029587 
	C92.643333,186.413666 93.858765,184.380402 98.850464,184.642990 
	C110.810814,185.272125 122.832130,183.841339 134.772766,185.638687 
	C144.963776,187.172684 152.968292,191.799866 155.630325,202.302399 
	C158.316666,212.900833 156.872711,222.842255 148.094971,230.600082 
	C146.769318,231.771698 144.839539,232.575439 146.090973,234.990463 
	C150.429138,243.362259 154.712616,251.762405 160.000076,259.894836 
	C160.000076,245.296524 159.991196,230.698196 160.003433,216.099884 
	C160.010696,207.435028 160.170395,198.768204 160.024704,190.106232 
	C159.955750,186.006973 161.516541,184.622635 165.634491,184.676514 
	C180.462921,184.870605 195.296371,184.834427 210.125900,184.685242 
	C213.880127,184.647476 215.536255,185.642380 215.426331,189.739166 
	C215.023071,204.767776 217.382538,202.016510 203.190109,202.292007 
	C197.693024,202.398712 192.186890,202.459396 186.694946,202.261536 
	C183.181091,202.134918 181.799515,203.551178 182.069977,206.953583 
	C182.188461,208.444321 182.176422,209.955902 182.089813,211.450272 
	C181.919464,214.390305 183.136734,215.635040 186.178421,215.636246 
	C194.335190,215.639496 202.474213,214.629669 210.647751,215.354706 
	C213.595947,215.616241 215.533401,213.997665 216.898438,211.305252 
	C220.739670,203.728836 224.911865,196.318298 228.667587,188.701355 
	C230.379608,185.229233 232.924667,184.608398 236.387146,184.696609 
	C239.975647,184.788025 240.603500,187.196426 241.461685,189.808258 
	C245.980499,203.560989 250.565491,217.292007 255.141556,231.025879 
	C255.648407,232.547012 256.244507,234.038406 257.224731,236.698242 
	C260.288727,227.457184 262.986847,219.317719 265.686279,211.178680 
	C268.149780,203.750900 270.713043,196.354080 273.031128,188.881210 
	C273.968628,185.859131 275.571503,184.580368 278.789368,184.705597 
	C283.947235,184.906342 289.128052,184.938858 294.281830,184.687424 
	C298.302399,184.491257 299.424652,186.186035 299.396393,189.982666 
	C299.259949,208.312057 299.327393,226.642975 299.328522,244.973343 
	C299.328552,245.606506 299.391693,246.239670 300.122314,247.068604 
	C303.362091,237.720261 306.628632,228.381088 309.834259,219.021057 
	C313.178894,209.255066 316.569092,199.502365 319.720947,189.673813 
	C320.849457,186.154770 322.592926,184.462448 326.500702,184.677765 
	C331.816772,184.970688 337.173157,184.954758 342.490204,184.665649 
	C346.350372,184.455750 348.133240,186.040100 349.316010,189.593170 
	C355.098297,206.963181 361.086853,224.264542 367.008026,241.588287 
	C367.532684,243.123260 367.667572,244.871124 369.872589,246.320740 
	C374.382080,238.970856 378.911926,231.701065 383.307587,224.351013 
	C384.548737,222.275650 383.029663,220.513626 381.987000,218.843445 
	C376.517548,210.082321 370.994934,201.354401 365.529236,192.590958 
	C364.232208,190.511337 362.589661,188.585815 361.869385,185.408112 
	C369.500793,184.239990 376.875336,184.524170 384.215271,185.152451 
	C386.084137,185.312439 386.785645,187.586441 387.682220,189.171921 
	C391.029419,195.090973 394.370605,201.013443 398.062897,207.552399 
	C401.771179,203.385681 404.122925,199.001389 405.980011,194.530563 
	C409.097321,187.025833 413.736145,183.005737 422.323242,184.632385 
	C425.986725,185.326370 429.886017,184.156921 433.563965,185.280273 
	C434.066742,187.621063 432.568817,188.953857 431.660828,190.446884 
	C425.948090,199.840836 420.395142,209.344543 414.312927,218.495285 
	C411.731537,222.379028 412.158020,225.093018 414.647552,228.711624 
	C421.539093,238.728760 428.057465,249.002945 434.696228,259.193176 
	C435.587250,260.560883 436.819336,261.802582 436.747314,264.212067 
	C429.440887,265.431793 422.041992,265.047913 414.659119,264.459137 
	C412.525360,264.289001 412.047394,262.076111 411.134857,260.548004 
	C406.803955,253.295761 402.517822,246.016754 397.774902,238.002380 
	C393.666809,243.233475 391.452728,248.606186 388.549072,253.526520 
	C380.593750,267.006927 385.260468,264.542328 369.165833,264.884674 
	C367.833252,264.913025 366.499664,264.894043 365.166534,264.895386 
	C352.822357,264.908081 352.759949,264.929382 348.728607,253.168457 
	C347.857544,250.627258 346.737335,249.274429 343.818909,249.353989 
	C337.491425,249.526550 331.151825,249.528931 324.825104,249.337906 
	C321.700409,249.243530 320.455200,250.760712 319.527008,253.436020 
	C315.554230,264.886841 315.500458,264.916199 303.565369,264.862457 
	C296.904968,264.832458 290.240479,264.400604 283.587433,264.557068 
	C279.642761,264.649872 278.826508,262.882874 278.860474,259.442474 
	C278.978973,247.448776 278.906311,235.453171 278.219910,223.270721 
	C274.607513,234.290665 270.920502,245.286896 267.407440,256.338440 
	C264.824341,264.464508 258.549835,267.437225 250.329391,264.313873 
	C248.224411,263.514069 247.958450,261.695648 247.402100,259.999969 
	C243.260681,247.377808 239.144821,234.747253 234.346130,222.207123 
	C234.346130,234.425140 234.152496,246.647766 234.444229,258.858795 
	C234.556290,263.549225 232.825912,265.265808 228.392258,264.883881 
	C226.236343,264.698151 224.071747,264.595612 221.908890,264.511505 
	C214.693420,264.230927 214.697495,264.240692 214.699783,256.729523 
	C214.703537,244.449371 214.700821,232.169205 213.820557,219.615570 
	C212.042191,222.896408 210.104126,226.103149 208.536743,229.481857 
	C207.315094,232.115280 205.537476,233.203735 202.686401,233.153625 
	C197.355942,233.059952 192.018860,233.272903 186.690979,233.125580 
	C183.239182,233.030136 181.747192,234.405762 182.055908,237.846573 
	C182.174622,239.169556 182.198196,240.521912 182.071228,241.842224 
	C181.689468,245.812042 183.536377,247.117432 187.356720,247.017624 
	C190.766647,246.928528 194.315521,246.311127 198.180878,248.044739 
	C196.467056,253.584976 193.425064,258.306061 190.843414,263.217957 
	C190.152588,264.532318 188.638260,264.492035 187.279327,264.572510 
	C171.960831,265.479858 156.648407,264.254242 141.333862,264.482178 
	C138.618347,264.522614 137.563385,262.879639 136.592270,260.832336 
	C133.523026,254.361755 130.447113,247.893875 127.307373,241.457336 
	C125.514511,237.781921 118.309364,235.675797 114.852310,237.704941 
	C113.252373,238.644012 113.411026,240.203949 113.404175,241.680084 
	C113.376328,247.679016 113.260216,253.681686 113.430534,259.675751 
	C113.525589,263.021179 112.470947,264.617554 108.903229,264.455902 
	C104.248978,264.245026 99.581009,264.336670 94.512390,264.176758 
M113.388992,211.503693 
	C113.402222,221.930832 112.910355,220.644547 122.406197,220.676331 
	C124.063263,220.681885 125.737221,220.765320 127.374687,220.571045 
	C132.901260,219.915314 135.789948,216.417435 135.654266,210.710861 
	C135.527237,205.367020 133.041412,202.771072 127.379387,202.166489 
	C125.734695,201.990860 124.073128,201.954605 122.417801,201.900208 
	C112.680794,201.580170 113.405228,199.908295 113.388992,211.503693 
M334.719330,206.918152 
	C334.609192,206.793594 334.520813,206.622391 334.382629,206.557983 
	C334.251770,206.496979 333.941833,206.507492 333.926483,206.555466 
	C331.342194,214.650818 328.777313,222.752380 325.940948,231.708542 
	C330.730316,231.708542 334.349731,231.644577 337.965820,231.727707 
	C341.166168,231.801270 342.123138,230.602554 341.096405,227.452774 
	C338.935455,220.823334 336.989502,214.123825 334.719330,206.918152 
z"/>
<path fill="#000000" opacity="1.000000" stroke="none" 
	d="
M148.635712,329.263855 
	C144.528183,329.313873 140.891403,329.447021 137.279175,328.444153 
	C130.507996,326.564392 130.012314,325.173523 134.411316,319.454681 
	C148.724213,322.353363 151.408081,321.743195 152.304230,315.107483 
	C149.893707,315.866058 147.637421,316.924713 145.279892,317.250336 
	C139.091187,318.105072 134.072723,315.399292 131.134232,310.016876 
	C128.378036,304.968414 129.051025,296.796173 132.571808,292.560150 
	C136.386963,287.969940 142.619659,286.204285 148.430817,288.335083 
	C150.610367,289.134277 152.108032,289.675720 154.650681,288.299835 
	C159.479340,285.686920 163.114716,288.304199 163.061676,293.794617 
	C162.992615,300.944092 163.652573,308.117767 162.580704,315.241547 
	C161.183884,324.525177 158.554016,327.229034 148.635712,329.263855 
M141.848068,307.837738 
	C147.816422,309.853912 151.773346,308.548187 152.708282,304.159607 
	C153.392258,300.949066 152.603409,298.240540 149.503281,296.599518 
	C146.319855,294.914429 143.264542,295.360657 140.944519,297.972900 
	C138.243866,301.013702 138.705078,304.303894 141.848068,307.837738 
z"/>
<path fill="#000000" opacity="1.000000" stroke="none" 
	d="
M124.735016,312.493042 
	C125.500717,319.991364 125.337250,320.175934 118.182899,320.187592 
	C111.529617,320.198425 104.873947,320.084198 98.223946,320.232208 
	C94.654762,320.311676 93.048317,318.979431 93.082985,315.305634 
	C93.183441,304.661438 93.151100,294.015594 93.106674,283.370636 
	C93.093285,280.162354 94.150192,278.497345 97.749664,278.592682 
	C105.229477,278.790802 112.718658,278.719727 120.202591,278.634979 
	C123.101547,278.602173 125.020470,279.203705 125.024857,282.676758 
	C125.029106,286.046082 123.716888,287.489044 120.255051,287.349548 
	C115.771919,287.168884 111.274445,287.378906 106.784485,287.319427 
	C104.238785,287.285736 103.216354,288.414276 103.219620,290.933594 
	C103.222763,293.359985 104.012146,294.711151 106.651726,294.673370 
	C110.476212,294.618652 114.304108,294.764496 118.127510,294.682831 
	C121.077942,294.619781 122.280441,295.874390 122.311104,298.850616 
	C122.343216,301.966949 121.283066,303.509491 117.990509,303.379181 
	C114.669373,303.247803 111.337250,303.421539 108.012253,303.351562 
	C105.242363,303.293243 103.095139,303.559631 103.202957,307.266418 
	C103.301399,310.650787 105.294426,310.930115 107.847702,310.905518 
	C111.672928,310.868652 115.499290,310.877472 119.324341,310.928925 
	C121.125305,310.953156 123.025742,310.677124 124.735016,312.493042 
z"/>
<path fill="#000000" opacity="1.000000" stroke="none" 
	d="
M219.887024,288.039764 
	C227.038498,286.755310 232.633270,288.683960 235.954361,294.864014 
	C239.539307,301.535065 239.316376,308.404938 234.971527,314.713501 
	C230.671478,320.957001 224.423187,321.904541 215.011703,318.020569 
	C213.768051,320.147522 214.307343,322.518005 214.395218,324.698914 
	C214.535049,328.169220 213.150543,329.368042 209.712769,329.363434 
	C206.175125,329.358673 204.577713,328.298370 204.638748,324.506317 
	C204.802078,314.358032 204.625748,304.204651 204.727737,294.054749 
	C204.749161,291.921173 203.650864,288.875977 206.838257,288.143463 
	C209.795502,287.463837 213.154785,286.832367 214.982483,290.503540 
	C216.575638,289.683289 218.040726,288.928986 219.887024,288.039764 
M228.362488,305.879364 
	C228.963577,301.449371 227.753418,297.903320 223.264114,296.247467 
	C220.142685,295.096100 217.727692,296.515076 215.911026,298.992981 
	C213.134003,302.780792 214.134842,308.669586 217.852905,310.964203 
	C221.659409,313.313385 225.637436,311.620789 228.362488,305.879364 
z"/>
<path fill="#000000" opacity="1.000000" stroke="none" 
	d="
M75.335098,202.354691 
	C73.799904,203.661301 72.451759,204.649689 71.261299,205.801086 
	C64.741287,212.107285 65.681412,212.475677 57.858139,205.457291 
	C53.159500,201.242050 48.477409,196.986404 44.858601,191.747757 
	C43.747765,190.139694 42.547676,188.507767 42.670799,185.695709 
	C57.365120,184.641129 71.929047,185.600250 87.444496,185.735672 
	C85.423676,193.432434 80.089752,197.480637 75.335098,202.354691 
z"/>
<path fill="#000000" opacity="1.000000" stroke="none" 
	d="
M179.925079,296.257446 
	C181.159698,299.690399 181.590485,303.034943 183.952957,306.090363 
	C186.438019,302.101654 187.146179,297.842255 188.473190,293.846436 
	C190.619827,287.382660 192.003815,286.635986 199.069687,288.664154 
	C199.199219,288.963531 199.500656,289.316772 199.428055,289.556915 
	C195.825531,301.473145 191.533188,313.152649 186.342972,324.453033 
	C184.087479,329.363892 176.755844,330.976562 171.962463,328.406097 
	C170.692657,327.725159 169.579330,326.952820 170.273743,325.342560 
	C171.092087,323.444885 171.381577,320.704407 174.216995,320.888489 
	C179.829224,321.252838 178.782623,318.299591 177.467453,314.987579 
	C174.648422,307.888306 171.769241,300.810059 169.138382,293.641113 
	C168.514938,291.942261 166.098358,289.239502 169.432083,288.249603 
	C172.379089,287.374542 176.199738,286.455597 178.001663,290.712128 
	C178.711548,292.389008 179.197800,294.160492 179.925079,296.257446 
z"/>
<path fill="#000000" opacity="1.000000" stroke="none" 
	d="
M261.981995,317.643433 
	C258.112457,321.437561 253.802719,320.983398 249.712158,319.320465 
	C245.633926,317.662537 245.534744,313.727386 245.573807,309.953125 
	C245.606537,306.790314 245.574692,303.626678 245.560776,300.463470 
	C245.553329,298.771698 245.551422,297.080444 243.580612,296.298157 
	C243.133224,296.120575 242.634567,295.866547 242.357346,295.498657 
	C240.237350,292.684937 244.747269,280.525116 248.254883,280.040131 
	C251.566467,279.582214 255.326202,279.143250 255.256149,284.391846 
	C255.225952,286.653564 256.225342,287.807404 258.519958,287.799774 
	C261.600952,287.789520 262.393555,289.548157 262.351776,292.342834 
	C262.312561,294.964233 261.523163,296.469666 258.659546,296.403534 
	C256.066010,296.343628 255.192841,297.897522 255.261948,300.269379 
	C255.305557,301.766266 255.248367,303.265808 255.253784,304.764130 
	C255.277222,311.239197 255.279541,311.239197 261.589264,311.968414 
	C262.717468,313.604858 262.208832,315.446198 261.981995,317.643433 
z"/>
<path fill="#000000" opacity="1.000000" stroke="none" 
	d="
M64.187820,156.485443 
	C76.320969,157.115326 84.111954,162.165054 86.396698,171.428345 
	C71.890778,170.896103 57.641518,172.389832 43.224453,171.401596 
	C45.296711,162.966064 53.307610,157.346024 64.187820,156.485443 
z"/>
</svg>